{
	"asset":{
		"generator":"Khronos glTF Blender I/O v4.2.57",
		"version":"2.0"
	},
	"scene":0,
	"scenes":[
		{
			"name":"Scene",
			"nodes":[
				3
			]
		}
	],
	"nodes":[
		{
			"name":"bot",
			"rotation":[
				-0.019014017656445503,
				-0.5970385670661926,
				0.0009073148830793798,
				0.8019866943359375
			],
			"scale":[
				1.0000001192092896,
				0.9999999403953552,
				1.000000238418579
			],
			"translation":[
				0.8593915700912476,
				-0.9975781440734863,
				-0.06242066249251366
			]
		},
		{
			"name":"top",
			"rotation":[
				0.7131509184837341,
				-0.00028910726541653275,
				-0.00010302989539923146,
				0.7010104656219482
			],
			"scale":[
				1,
				1,
				1.000000238418579
			],
			"translation":[
				3.725290298461914e-09,
				0.6378114819526672,
				-1.4388933777809143e-07
			]
		},
		{
			"children":[
				1
			],
			"name":"side",
			"rotation":[
				-0.4310953915119171,
				0.5693442225456238,
				0.564719557762146,
				0.41363731026649475
			],
			"scale":[
				1,
				0.9999999403953552,
				1
			],
			"translation":[
				0.8593917489051819,
				-0.9975782036781311,
				-0.0624207966029644
			]
		},
		{
			"children":[
				0,
				2
			],
			"name":"Armature",
			"rotation":[
				-0.1096692681312561,
				-0.10601566731929779,
				-0.6868960857391357,
				0.7105682492256165
			],
			"translation":[
				0,
				1.0903717279434204,
				0
			]
		}
	],
	"animations":[
		{
			"channels":[
				{
					"sampler":0,
					"target":{
						"node":0,
						"path":"translation"
					}
				},
				{
					"sampler":1,
					"target":{
						"node":0,
						"path":"rotation"
					}
				},
				{
					"sampler":2,
					"target":{
						"node":0,
						"path":"scale"
					}
				},
				{
					"sampler":3,
					"target":{
						"node":2,
						"path":"translation"
					}
				},
				{
					"sampler":4,
					"target":{
						"node":2,
						"path":"rotation"
					}
				},
				{
					"sampler":5,
					"target":{
						"node":2,
						"path":"scale"
					}
				},
				{
					"sampler":6,
					"target":{
						"node":1,
						"path":"translation"
					}
				},
				{
					"sampler":7,
					"target":{
						"node":1,
						"path":"rotation"
					}
				},
				{
					"sampler":8,
					"target":{
						"node":1,
						"path":"scale"
					}
				}
			],
			"name":"book_idle.001",
			"samplers":[
				{
					"input":0,
					"interpolation":"LINEAR",
					"output":1
				},
				{
					"input":2,
					"interpolation":"STEP",
					"output":3
				},
				{
					"input":2,
					"interpolation":"STEP",
					"output":4
				},
				{
					"input":0,
					"interpolation":"LINEAR",
					"output":5
				},
				{
					"input":2,
					"interpolation":"STEP",
					"output":6
				},
				{
					"input":2,
					"interpolation":"STEP",
					"output":7
				},
				{
					"input":2,
					"interpolation":"LINEAR",
					"output":8
				},
				{
					"input":2,
					"interpolation":"STEP",
					"output":9
				},
				{
					"input":2,
					"interpolation":"STEP",
					"output":10
				}
			]
		},
		{
			"channels":[
				{
					"sampler":0,
					"target":{
						"node":0,
						"path":"translation"
					}
				},
				{
					"sampler":1,
					"target":{
						"node":0,
						"path":"rotation"
					}
				},
				{
					"sampler":2,
					"target":{
						"node":0,
						"path":"scale"
					}
				},
				{
					"sampler":3,
					"target":{
						"node":2,
						"path":"translation"
					}
				},
				{
					"sampler":4,
					"target":{
						"node":2,
						"path":"rotation"
					}
				},
				{
					"sampler":5,
					"target":{
						"node":2,
						"path":"scale"
					}
				},
				{
					"sampler":6,
					"target":{
						"node":1,
						"path":"translation"
					}
				},
				{
					"sampler":7,
					"target":{
						"node":1,
						"path":"rotation"
					}
				},
				{
					"sampler":8,
					"target":{
						"node":1,
						"path":"scale"
					}
				}
			],
			"name":"book_OPEN",
			"samplers":[
				{
					"input":0,
					"interpolation":"LINEAR",
					"output":11
				},
				{
					"input":0,
					"interpolation":"LINEAR",
					"output":12
				},
				{
					"input":2,
					"interpolation":"STEP",
					"output":13
				},
				{
					"input":0,
					"interpolation":"LINEAR",
					"output":14
				},
				{
					"input":0,
					"interpolation":"LINEAR",
					"output":15
				},
				{
					"input":2,
					"interpolation":"STEP",
					"output":16
				},
				{
					"input":2,
					"interpolation":"LINEAR",
					"output":17
				},
				{
					"input":0,
					"interpolation":"LINEAR",
					"output":18
				},
				{
					"input":2,
					"interpolation":"STEP",
					"output":19
				}
			]
		},
		{
			"channels":[
				{
					"sampler":0,
					"target":{
						"node":0,
						"path":"translation"
					}
				},
				{
					"sampler":1,
					"target":{
						"node":0,
						"path":"rotation"
					}
				},
				{
					"sampler":2,
					"target":{
						"node":0,
						"path":"scale"
					}
				},
				{
					"sampler":3,
					"target":{
						"node":2,
						"path":"translation"
					}
				},
				{
					"sampler":4,
					"target":{
						"node":2,
						"path":"rotation"
					}
				},
				{
					"sampler":5,
					"target":{
						"node":2,
						"path":"scale"
					}
				},
				{
					"sampler":6,
					"target":{
						"node":1,
						"path":"translation"
					}
				},
				{
					"sampler":7,
					"target":{
						"node":1,
						"path":"rotation"
					}
				},
				{
					"sampler":8,
					"target":{
						"node":1,
						"path":"scale"
					}
				}
			],
			"name":"book_close",
			"samplers":[
				{
					"input":20,
					"interpolation":"STEP",
					"output":21
				},
				{
					"input":20,
					"interpolation":"STEP",
					"output":22
				},
				{
					"input":20,
					"interpolation":"STEP",
					"output":23
				},
				{
					"input":20,
					"interpolation":"LINEAR",
					"output":24
				},
				{
					"input":25,
					"interpolation":"LINEAR",
					"output":26
				},
				{
					"input":20,
					"interpolation":"STEP",
					"output":27
				},
				{
					"input":20,
					"interpolation":"LINEAR",
					"output":28
				},
				{
					"input":25,
					"interpolation":"LINEAR",
					"output":29
				},
				{
					"input":20,
					"interpolation":"STEP",
					"output":30
				}
			]
		}
	],
	"skins":[
		{
			"inverseBindMatrices":31,
			"joints":[
				0,
				2,
				1
			],
			"name":"Armature"
		}
	],
	"accessors":[
		{
			"bufferView":0,
			"componentType":5126,
			"count":31,
			"max":[
				1.25
			],
			"min":[
				0
			],
			"type":"SCALAR"
		},
		{
			"bufferView":1,
			"componentType":5126,
			"count":31,
			"type":"VEC3"
		},
		{
			"bufferView":2,
			"componentType":5126,
			"count":2,
			"max":[
				1.25
			],
			"min":[
				0
			],
			"type":"SCALAR"
		},
		{
			"bufferView":3,
			"componentType":5126,
			"count":2,
			"type":"VEC4"
		},
		{
			"bufferView":4,
			"componentType":5126,
			"count":2,
			"type":"VEC3"
		},
		{
			"bufferView":5,
			"componentType":5126,
			"count":31,
			"type":"VEC3"
		},
		{
			"bufferView":6,
			"componentType":5126,
			"count":2,
			"type":"VEC4"
		},
		{
			"bufferView":7,
			"componentType":5126,
			"count":2,
			"type":"VEC3"
		},
		{
			"bufferView":8,
			"componentType":5126,
			"count":2,
			"type":"VEC3"
		},
		{
			"bufferView":9,
			"componentType":5126,
			"count":2,
			"type":"VEC4"
		},
		{
			"bufferView":10,
			"componentType":5126,
			"count":2,
			"type":"VEC3"
		},
		{
			"bufferView":11,
			"componentType":5126,
			"count":31,
			"type":"VEC3"
		},
		{
			"bufferView":12,
			"componentType":5126,
			"count":31,
			"type":"VEC4"
		},
		{
			"bufferView":13,
			"componentType":5126,
			"count":2,
			"type":"VEC3"
		},
		{
			"bufferView":14,
			"componentType":5126,
			"count":31,
			"type":"VEC3"
		},
		{
			"bufferView":15,
			"componentType":5126,
			"count":31,
			"type":"VEC4"
		},
		{
			"bufferView":16,
			"componentType":5126,
			"count":2,
			"type":"VEC3"
		},
		{
			"bufferView":17,
			"componentType":5126,
			"count":2,
			"type":"VEC3"
		},
		{
			"bufferView":18,
			"componentType":5126,
			"count":31,
			"type":"VEC4"
		},
		{
			"bufferView":19,
			"componentType":5126,
			"count":2,
			"type":"VEC3"
		},
		{
			"bufferView":20,
			"componentType":5126,
			"count":2,
			"max":[
				0.8333333333333334
			],
			"min":[
				0
			],
			"type":"SCALAR"
		},
		{
			"bufferView":21,
			"componentType":5126,
			"count":2,
			"type":"VEC3"
		},
		{
			"bufferView":22,
			"componentType":5126,
			"count":2,
			"type":"VEC4"
		},
		{
			"bufferView":23,
			"componentType":5126,
			"count":2,
			"type":"VEC3"
		},
		{
			"bufferView":24,
			"componentType":5126,
			"count":2,
			"type":"VEC3"
		},
		{
			"bufferView":25,
			"componentType":5126,
			"count":21,
			"max":[
				0.8333333333333334
			],
			"min":[
				0
			],
			"type":"SCALAR"
		},
		{
			"bufferView":26,
			"componentType":5126,
			"count":21,
			"type":"VEC4"
		},
		{
			"bufferView":27,
			"componentType":5126,
			"count":2,
			"type":"VEC3"
		},
		{
			"bufferView":28,
			"componentType":5126,
			"count":2,
			"type":"VEC3"
		},
		{
			"bufferView":29,
			"componentType":5126,
			"count":21,
			"type":"VEC4"
		},
		{
			"bufferView":30,
			"componentType":5126,
			"count":2,
			"type":"VEC3"
		},
		{
			"bufferView":31,
			"componentType":5126,
			"count":3,
			"type":"MAT4"
		}
	],
	"bufferViews":[
		{
			"buffer":0,
			"byteLength":124,
			"byteOffset":0
		},
		{
			"buffer":0,
			"byteLength":372,
			"byteOffset":124
		},
		{
			"buffer":0,
			"byteLength":8,
			"byteOffset":496
		},
		{
			"buffer":0,
			"byteLength":32,
			"byteOffset":504
		},
		{
			"buffer":0,
			"byteLength":24,
			"byteOffset":536
		},
		{
			"buffer":0,
			"byteLength":372,
			"byteOffset":560
		},
		{
			"buffer":0,
			"byteLength":32,
			"byteOffset":932
		},
		{
			"buffer":0,
			"byteLength":24,
			"byteOffset":964
		},
		{
			"buffer":0,
			"byteLength":24,
			"byteOffset":988
		},
		{
			"buffer":0,
			"byteLength":32,
			"byteOffset":1012
		},
		{
			"buffer":0,
			"byteLength":24,
			"byteOffset":1044
		},
		{
			"buffer":0,
			"byteLength":372,
			"byteOffset":1068
		},
		{
			"buffer":0,
			"byteLength":496,
			"byteOffset":1440
		},
		{
			"buffer":0,
			"byteLength":24,
			"byteOffset":1936
		},
		{
			"buffer":0,
			"byteLength":372,
			"byteOffset":1960
		},
		{
			"buffer":0,
			"byteLength":496,
			"byteOffset":2332
		},
		{
			"buffer":0,
			"byteLength":24,
			"byteOffset":2828
		},
		{
			"buffer":0,
			"byteLength":24,
			"byteOffset":2852
		},
		{
			"buffer":0,
			"byteLength":496,
			"byteOffset":2876
		},
		{
			"buffer":0,
			"byteLength":24,
			"byteOffset":3372
		},
		{
			"buffer":0,
			"byteLength":8,
			"byteOffset":3396
		},
		{
			"buffer":0,
			"byteLength":24,
			"byteOffset":3404
		},
		{
			"buffer":0,
			"byteLength":32,
			"byteOffset":3428
		},
		{
			"buffer":0,
			"byteLength":24,
			"byteOffset":3460
		},
		{
			"buffer":0,
			"byteLength":24,
			"byteOffset":3484
		},
		{
			"buffer":0,
			"byteLength":84,
			"byteOffset":3508
		},
		{
			"buffer":0,
			"byteLength":336,
			"byteOffset":3592
		},
		{
			"buffer":0,
			"byteLength":24,
			"byteOffset":3928
		},
		{
			"buffer":0,
			"byteLength":24,
			"byteOffset":3952
		},
		{
			"buffer":0,
			"byteLength":336,
			"byteOffset":3976
		},
		{
			"buffer":0,
			"byteLength":24,
			"byteOffset":4312
		},
		{
			"buffer":0,
			"byteLength":192,
			"byteOffset":4336
		}
	],
	"buffers":[
		{
			"byteLength":4528,
			"uri":"bible.bin"
		}
	]
}
