{
	"asset":{
		"generator":"Khronos glTF Blender I/O v4.2.57",
		"version":"2.0"
	},
	"scene":0,
	"scenes":[
		{
			"name":"Scene",
			"nodes":[
				5
			]
		}
	],
	"nodes":[
		{
			"name":"bot",
			"rotation":[
				0.0015197084285318851,
				1.1837984459361905e-07,
				1.0477391176877404e-09,
				0.9999988675117493
			],
			"translation":[
				6.612390279769897e-08,
				-0.9684547185897827,
				0.03936799615621567
			]
		},
		{
			"name":"top",
			"rotation":[
				0.7188698649406433,
				1.3896659822876245e-08,
				-2.716984397466149e-07,
				0.6951447129249573
			],
			"translation":[
				1.2293457984924316e-07,
				0.6378113627433777,
				-6.135087460279465e-08
			]
		},
		{
			"children":[
				1
			],
			"name":"side",
			"rotation":[
				1.3425761835605954e-07,
				0.7027287483215332,
				0.7114579677581787,
				1.487901073460307e-07
			],
			"translation":[
				6.612390279769897e-08,
				-0.9684547185897827,
				0.03936799615621567
			]
		},
		{
			"name":"neutral_bone",
			"rotation":[
				-0.7071067690849304,
				0,
				0,
				0.7071067690849304
			]
		},
		{
			"mesh":0,
			"name":"Cube.003",
			"skin":0
		},
		{
			"children":[
				4,
				0,
				2,
				3
			],
			"name":"Armature",
			"rotation":[
				-0.1096692681312561,
				-0.10601566731929779,
				-0.6868960857391357,
				0.7105682492256165
			],
			"translation":[
				0,
				1.0903717279434204,
				0
			]
		}
	],
	"animations":[
		{
			"channels":[
				{
					"sampler":0,
					"target":{
						"node":0,
						"path":"translation"
					}
				},
				{
					"sampler":1,
					"target":{
						"node":0,
						"path":"rotation"
					}
				},
				{
					"sampler":2,
					"target":{
						"node":0,
						"path":"scale"
					}
				},
				{
					"sampler":3,
					"target":{
						"node":2,
						"path":"translation"
					}
				},
				{
					"sampler":4,
					"target":{
						"node":2,
						"path":"rotation"
					}
				},
				{
					"sampler":5,
					"target":{
						"node":2,
						"path":"scale"
					}
				},
				{
					"sampler":6,
					"target":{
						"node":1,
						"path":"translation"
					}
				},
				{
					"sampler":7,
					"target":{
						"node":1,
						"path":"rotation"
					}
				},
				{
					"sampler":8,
					"target":{
						"node":1,
						"path":"scale"
					}
				}
			],
			"name":"book_idle.001",
			"samplers":[
				{
					"input":37,
					"interpolation":"LINEAR",
					"output":38
				},
				{
					"input":39,
					"interpolation":"STEP",
					"output":40
				},
				{
					"input":39,
					"interpolation":"STEP",
					"output":41
				},
				{
					"input":37,
					"interpolation":"LINEAR",
					"output":42
				},
				{
					"input":39,
					"interpolation":"STEP",
					"output":43
				},
				{
					"input":39,
					"interpolation":"STEP",
					"output":44
				},
				{
					"input":39,
					"interpolation":"LINEAR",
					"output":45
				},
				{
					"input":39,
					"interpolation":"STEP",
					"output":46
				},
				{
					"input":39,
					"interpolation":"STEP",
					"output":47
				}
			]
		},
		{
			"channels":[
				{
					"sampler":0,
					"target":{
						"node":0,
						"path":"translation"
					}
				},
				{
					"sampler":1,
					"target":{
						"node":0,
						"path":"rotation"
					}
				},
				{
					"sampler":2,
					"target":{
						"node":0,
						"path":"scale"
					}
				},
				{
					"sampler":3,
					"target":{
						"node":2,
						"path":"translation"
					}
				},
				{
					"sampler":4,
					"target":{
						"node":2,
						"path":"rotation"
					}
				},
				{
					"sampler":5,
					"target":{
						"node":2,
						"path":"scale"
					}
				},
				{
					"sampler":6,
					"target":{
						"node":1,
						"path":"translation"
					}
				},
				{
					"sampler":7,
					"target":{
						"node":1,
						"path":"rotation"
					}
				},
				{
					"sampler":8,
					"target":{
						"node":1,
						"path":"scale"
					}
				}
			],
			"name":"book_OPEN",
			"samplers":[
				{
					"input":37,
					"interpolation":"LINEAR",
					"output":48
				},
				{
					"input":37,
					"interpolation":"LINEAR",
					"output":49
				},
				{
					"input":39,
					"interpolation":"STEP",
					"output":50
				},
				{
					"input":37,
					"interpolation":"LINEAR",
					"output":51
				},
				{
					"input":37,
					"interpolation":"LINEAR",
					"output":52
				},
				{
					"input":39,
					"interpolation":"STEP",
					"output":53
				},
				{
					"input":39,
					"interpolation":"LINEAR",
					"output":54
				},
				{
					"input":37,
					"interpolation":"LINEAR",
					"output":55
				},
				{
					"input":39,
					"interpolation":"STEP",
					"output":56
				}
			]
		}
	],
	"materials":[
		{
			"doubleSided":true,
			"name":"Material.001",
			"pbrMetallicRoughness":{
				"baseColorFactor":[
					0.07100602239370346,
					0.009267189539968967,
					0.004221852868795395,
					1
				],
				"metallicFactor":0,
				"roughnessFactor":0.5
			}
		},
		{
			"doubleSided":true,
			"name":"corners",
			"pbrMetallicRoughness":{
				"baseColorFactor":[
					0.8002997636795044,
					0.6494807600975037,
					0.302446186542511,
					1
				],
				"metallicFactor":0.8602150678634644,
				"roughnessFactor":0.1666666567325592
			}
		},
		{
			"doubleSided":true,
			"name":"hooks",
			"pbrMetallicRoughness":{
				"baseColorFactor":[
					1,
					0.2638237476348877,
					0.03376664221286774,
					1
				],
				"metallicFactor":0.7526881694793701,
				"roughnessFactor":0.12365591526031494
			}
		},
		{
			"doubleSided":true,
			"name":"bind",
			"pbrMetallicRoughness":{
				"baseColorFactor":[
					0.03453646972775459,
					0.006737568415701389,
					0.0026081432588398457,
					1
				],
				"metallicFactor":0,
				"roughnessFactor":0.5
			}
		},
		{
			"doubleSided":true,
			"name":"pages",
			"pbrMetallicRoughness":{
				"baseColorFactor":[
					0.800000011920929,
					0.800000011920929,
					0.800000011920929,
					1
				],
				"metallicFactor":0,
				"roughnessFactor":0.5
			}
		},
		{
			"doubleSided":true,
			"name":"cross",
			"pbrMetallicRoughness":{
				"baseColorFactor":[
					0.800039529800415,
					0.1823209822177887,
					0,
					1
				],
				"metallicFactor":0.6344085931777954,
				"roughnessFactor":0.12365591526031494
			}
		}
	],
	"meshes":[
		{
			"name":"Cube.009",
			"primitives":[
				{
					"attributes":{
						"POSITION":0,
						"NORMAL":1,
						"TEXCOORD_0":2,
						"JOINTS_0":3,
						"WEIGHTS_0":4
					},
					"indices":5,
					"material":0
				},
				{
					"attributes":{
						"POSITION":6,
						"NORMAL":7,
						"TEXCOORD_0":8,
						"JOINTS_0":9,
						"WEIGHTS_0":10
					},
					"indices":11,
					"material":1
				},
				{
					"attributes":{
						"POSITION":12,
						"NORMAL":13,
						"TEXCOORD_0":14,
						"JOINTS_0":15,
						"WEIGHTS_0":16
					},
					"indices":17,
					"material":2
				},
				{
					"attributes":{
						"POSITION":18,
						"NORMAL":19,
						"TEXCOORD_0":20,
						"JOINTS_0":21,
						"WEIGHTS_0":22
					},
					"indices":23,
					"material":3
				},
				{
					"attributes":{
						"POSITION":24,
						"NORMAL":25,
						"TEXCOORD_0":26,
						"JOINTS_0":27,
						"WEIGHTS_0":28
					},
					"indices":29,
					"material":4
				},
				{
					"attributes":{
						"POSITION":30,
						"NORMAL":31,
						"TEXCOORD_0":32,
						"JOINTS_0":33,
						"WEIGHTS_0":34
					},
					"indices":35,
					"material":5
				}
			]
		}
	],
	"skins":[
		{
			"inverseBindMatrices":36,
			"joints":[
				0,
				2,
				1,
				3
			],
			"name":"Armature"
		}
	],
	"accessors":[
		{
			"bufferView":0,
			"componentType":5126,
			"count":2126,
			"max":[
				1.8035651445388794,
				3.526132822036743,
				1.1463290452957153
			],
			"min":[
				-1.1488336324691772,
				-0.09901826083660126,
				-0.7840762138366699
			],
			"type":"VEC3"
		},
		{
			"bufferView":1,
			"componentType":5126,
			"count":2126,
			"type":"VEC3"
		},
		{
			"bufferView":2,
			"componentType":5126,
			"count":2126,
			"type":"VEC2"
		},
		{
			"bufferView":3,
			"componentType":5121,
			"count":2126,
			"type":"VEC4"
		},
		{
			"bufferView":4,
			"componentType":5126,
			"count":2126,
			"type":"VEC4"
		},
		{
			"bufferView":5,
			"componentType":5123,
			"count":3777,
			"type":"SCALAR"
		},
		{
			"bufferView":6,
			"componentType":5126,
			"count":720,
			"max":[
				1.8191395998001099,
				3.615654230117798,
				1.140275478363037
			],
			"min":[
				0.7971385717391968,
				-0.15516908466815948,
				-0.8108722567558289
			],
			"type":"VEC3"
		},
		{
			"bufferView":7,
			"componentType":5126,
			"count":720,
			"type":"VEC3"
		},
		{
			"bufferView":8,
			"componentType":5126,
			"count":720,
			"type":"VEC2"
		},
		{
			"bufferView":9,
			"componentType":5121,
			"count":720,
			"type":"VEC4"
		},
		{
			"bufferView":10,
			"componentType":5126,
			"count":720,
			"type":"VEC4"
		},
		{
			"bufferView":11,
			"componentType":5123,
			"count":1110,
			"type":"SCALAR"
		},
		{
			"bufferView":12,
			"componentType":5126,
			"count":302,
			"max":[
				-0.8713148236274719,
				3.1570324897766113,
				0.8585798740386963
			],
			"min":[
				-1.1488337516784668,
				0.7309268712997437,
				-0.6351386904716492
			],
			"type":"VEC3"
		},
		{
			"bufferView":13,
			"componentType":5126,
			"count":302,
			"type":"VEC3"
		},
		{
			"bufferView":14,
			"componentType":5126,
			"count":302,
			"type":"VEC2"
		},
		{
			"bufferView":15,
			"componentType":5121,
			"count":302,
			"type":"VEC4"
		},
		{
			"bufferView":16,
			"componentType":5126,
			"count":302,
			"type":"VEC4"
		},
		{
			"bufferView":17,
			"componentType":5123,
			"count":474,
			"type":"SCALAR"
		},
		{
			"bufferView":18,
			"componentType":5126,
			"count":289,
			"max":[
				-0.8417580723762512,
				3.4498488903045654,
				1.1463290452957153
			],
			"min":[
				-1.0863271951675415,
				-0.09901826083660126,
				-0.6924326419830322
			],
			"type":"VEC3"
		},
		{
			"bufferView":19,
			"componentType":5126,
			"count":289,
			"type":"VEC3"
		},
		{
			"bufferView":20,
			"componentType":5126,
			"count":289,
			"type":"VEC2"
		},
		{
			"bufferView":21,
			"componentType":5121,
			"count":289,
			"type":"VEC4"
		},
		{
			"bufferView":22,
			"componentType":5126,
			"count":289,
			"type":"VEC4"
		},
		{
			"bufferView":23,
			"componentType":5123,
			"count":444,
			"type":"SCALAR"
		},
		{
			"bufferView":24,
			"componentType":5126,
			"count":266,
			"max":[
				1.5063129663467407,
				3.4163825511932373,
				1.0260769128799438
			],
			"min":[
				-0.972975492477417,
				0.004747122060507536,
				-0.5949854254722595
			],
			"type":"VEC3"
		},
		{
			"bufferView":25,
			"componentType":5126,
			"count":266,
			"type":"VEC3"
		},
		{
			"bufferView":26,
			"componentType":5126,
			"count":266,
			"type":"VEC2"
		},
		{
			"bufferView":27,
			"componentType":5121,
			"count":266,
			"type":"VEC4"
		},
		{
			"bufferView":28,
			"componentType":5126,
			"count":266,
			"type":"VEC4"
		},
		{
			"bufferView":29,
			"componentType":5123,
			"count":432,
			"type":"SCALAR"
		},
		{
			"bufferView":30,
			"componentType":5126,
			"count":188,
			"max":[
				1.123443841934204,
				3.0053963661193848,
				0.9641166925430298
			],
			"min":[
				-0.5654366612434387,
				0.6102928519248962,
				0.17342528700828552
			],
			"type":"VEC3"
		},
		{
			"bufferView":31,
			"componentType":5126,
			"count":188,
			"type":"VEC3"
		},
		{
			"bufferView":32,
			"componentType":5126,
			"count":188,
			"type":"VEC2"
		},
		{
			"bufferView":33,
			"componentType":5121,
			"count":188,
			"type":"VEC4"
		},
		{
			"bufferView":34,
			"componentType":5126,
			"count":188,
			"type":"VEC4"
		},
		{
			"bufferView":35,
			"componentType":5123,
			"count":309,
			"type":"SCALAR"
		},
		{
			"bufferView":36,
			"componentType":5126,
			"count":4,
			"type":"MAT4"
		},
		{
			"bufferView":37,
			"componentType":5126,
			"count":31,
			"max":[
				1.25
			],
			"min":[
				0
			],
			"type":"SCALAR"
		},
		{
			"bufferView":38,
			"componentType":5126,
			"count":31,
			"type":"VEC3"
		},
		{
			"bufferView":39,
			"componentType":5126,
			"count":2,
			"max":[
				1.25
			],
			"min":[
				0
			],
			"type":"SCALAR"
		},
		{
			"bufferView":40,
			"componentType":5126,
			"count":2,
			"type":"VEC4"
		},
		{
			"bufferView":41,
			"componentType":5126,
			"count":2,
			"type":"VEC3"
		},
		{
			"bufferView":42,
			"componentType":5126,
			"count":31,
			"type":"VEC3"
		},
		{
			"bufferView":43,
			"componentType":5126,
			"count":2,
			"type":"VEC4"
		},
		{
			"bufferView":44,
			"componentType":5126,
			"count":2,
			"type":"VEC3"
		},
		{
			"bufferView":45,
			"componentType":5126,
			"count":2,
			"type":"VEC3"
		},
		{
			"bufferView":46,
			"componentType":5126,
			"count":2,
			"type":"VEC4"
		},
		{
			"bufferView":47,
			"componentType":5126,
			"count":2,
			"type":"VEC3"
		},
		{
			"bufferView":48,
			"componentType":5126,
			"count":31,
			"type":"VEC3"
		},
		{
			"bufferView":49,
			"componentType":5126,
			"count":31,
			"type":"VEC4"
		},
		{
			"bufferView":50,
			"componentType":5126,
			"count":2,
			"type":"VEC3"
		},
		{
			"bufferView":51,
			"componentType":5126,
			"count":31,
			"type":"VEC3"
		},
		{
			"bufferView":52,
			"componentType":5126,
			"count":31,
			"type":"VEC4"
		},
		{
			"bufferView":53,
			"componentType":5126,
			"count":2,
			"type":"VEC3"
		},
		{
			"bufferView":54,
			"componentType":5126,
			"count":2,
			"type":"VEC3"
		},
		{
			"bufferView":55,
			"componentType":5126,
			"count":31,
			"type":"VEC4"
		},
		{
			"bufferView":56,
			"componentType":5126,
			"count":2,
			"type":"VEC3"
		}
	],
	"bufferViews":[
		{
			"buffer":0,
			"byteLength":25512,
			"byteOffset":0,
			"target":34962
		},
		{
			"buffer":0,
			"byteLength":25512,
			"byteOffset":25512,
			"target":34962
		},
		{
			"buffer":0,
			"byteLength":17008,
			"byteOffset":51024,
			"target":34962
		},
		{
			"buffer":0,
			"byteLength":8504,
			"byteOffset":68032,
			"target":34962
		},
		{
			"buffer":0,
			"byteLength":34016,
			"byteOffset":76536,
			"target":34962
		},
		{
			"buffer":0,
			"byteLength":7554,
			"byteOffset":110552,
			"target":34963
		},
		{
			"buffer":0,
			"byteLength":8640,
			"byteOffset":118108,
			"target":34962
		},
		{
			"buffer":0,
			"byteLength":8640,
			"byteOffset":126748,
			"target":34962
		},
		{
			"buffer":0,
			"byteLength":5760,
			"byteOffset":135388,
			"target":34962
		},
		{
			"buffer":0,
			"byteLength":2880,
			"byteOffset":141148,
			"target":34962
		},
		{
			"buffer":0,
			"byteLength":11520,
			"byteOffset":144028,
			"target":34962
		},
		{
			"buffer":0,
			"byteLength":2220,
			"byteOffset":155548,
			"target":34963
		},
		{
			"buffer":0,
			"byteLength":3624,
			"byteOffset":157768,
			"target":34962
		},
		{
			"buffer":0,
			"byteLength":3624,
			"byteOffset":161392,
			"target":34962
		},
		{
			"buffer":0,
			"byteLength":2416,
			"byteOffset":165016,
			"target":34962
		},
		{
			"buffer":0,
			"byteLength":1208,
			"byteOffset":167432,
			"target":34962
		},
		{
			"buffer":0,
			"byteLength":4832,
			"byteOffset":168640,
			"target":34962
		},
		{
			"buffer":0,
			"byteLength":948,
			"byteOffset":173472,
			"target":34963
		},
		{
			"buffer":0,
			"byteLength":3468,
			"byteOffset":174420,
			"target":34962
		},
		{
			"buffer":0,
			"byteLength":3468,
			"byteOffset":177888,
			"target":34962
		},
		{
			"buffer":0,
			"byteLength":2312,
			"byteOffset":181356,
			"target":34962
		},
		{
			"buffer":0,
			"byteLength":1156,
			"byteOffset":183668,
			"target":34962
		},
		{
			"buffer":0,
			"byteLength":4624,
			"byteOffset":184824,
			"target":34962
		},
		{
			"buffer":0,
			"byteLength":888,
			"byteOffset":189448,
			"target":34963
		},
		{
			"buffer":0,
			"byteLength":3192,
			"byteOffset":190336,
			"target":34962
		},
		{
			"buffer":0,
			"byteLength":3192,
			"byteOffset":193528,
			"target":34962
		},
		{
			"buffer":0,
			"byteLength":2128,
			"byteOffset":196720,
			"target":34962
		},
		{
			"buffer":0,
			"byteLength":1064,
			"byteOffset":198848,
			"target":34962
		},
		{
			"buffer":0,
			"byteLength":4256,
			"byteOffset":199912,
			"target":34962
		},
		{
			"buffer":0,
			"byteLength":864,
			"byteOffset":204168,
			"target":34963
		},
		{
			"buffer":0,
			"byteLength":2256,
			"byteOffset":205032,
			"target":34962
		},
		{
			"buffer":0,
			"byteLength":2256,
			"byteOffset":207288,
			"target":34962
		},
		{
			"buffer":0,
			"byteLength":1504,
			"byteOffset":209544,
			"target":34962
		},
		{
			"buffer":0,
			"byteLength":752,
			"byteOffset":211048,
			"target":34962
		},
		{
			"buffer":0,
			"byteLength":3008,
			"byteOffset":211800,
			"target":34962
		},
		{
			"buffer":0,
			"byteLength":618,
			"byteOffset":214808,
			"target":34963
		},
		{
			"buffer":0,
			"byteLength":256,
			"byteOffset":215428
		},
		{
			"buffer":0,
			"byteLength":124,
			"byteOffset":215684
		},
		{
			"buffer":0,
			"byteLength":372,
			"byteOffset":215808
		},
		{
			"buffer":0,
			"byteLength":8,
			"byteOffset":216180
		},
		{
			"buffer":0,
			"byteLength":32,
			"byteOffset":216188
		},
		{
			"buffer":0,
			"byteLength":24,
			"byteOffset":216220
		},
		{
			"buffer":0,
			"byteLength":372,
			"byteOffset":216244
		},
		{
			"buffer":0,
			"byteLength":32,
			"byteOffset":216616
		},
		{
			"buffer":0,
			"byteLength":24,
			"byteOffset":216648
		},
		{
			"buffer":0,
			"byteLength":24,
			"byteOffset":216672
		},
		{
			"buffer":0,
			"byteLength":32,
			"byteOffset":216696
		},
		{
			"buffer":0,
			"byteLength":24,
			"byteOffset":216728
		},
		{
			"buffer":0,
			"byteLength":372,
			"byteOffset":216752
		},
		{
			"buffer":0,
			"byteLength":496,
			"byteOffset":217124
		},
		{
			"buffer":0,
			"byteLength":24,
			"byteOffset":217620
		},
		{
			"buffer":0,
			"byteLength":372,
			"byteOffset":217644
		},
		{
			"buffer":0,
			"byteLength":496,
			"byteOffset":218016
		},
		{
			"buffer":0,
			"byteLength":24,
			"byteOffset":218512
		},
		{
			"buffer":0,
			"byteLength":24,
			"byteOffset":218536
		},
		{
			"buffer":0,
			"byteLength":496,
			"byteOffset":218560
		},
		{
			"buffer":0,
			"byteLength":24,
			"byteOffset":219056
		}
	],
	"buffers":[
		{
			"byteLength":219080,
			"uri":"bible.bin"
		}
	]
}
